GRF
version=1
nRows=24
nColumns=19
inDegrees=no
endheader
time	1_ground_force_vx	1_ground_force_vy	1_ground_force_vz	1_ground_force_px	1_ground_force_py	1_ground_force_pz	1_ground_torque_x	1_ground_torque_y	1_ground_torque_z	2_ground_force_vx	2_ground_force_vy	2_ground_force_vz	2_ground_force_px	2_ground_force_py	2_ground_force_pz	2_ground_torque_x	2_ground_torque_y	2_ground_torque_z
      1.33500000	     -2.01720652	    734.45862641	     -1.77983742	      0.14771424	      0.00000000	     -0.41297459	      0.00000000	      0.16760640	      0.00000000	      0.00000000	      0.00000000	      0.00000000	      0.00000000	      0.00000000	      0.00000000	      0.00000000	      0.00000000	      0.00000000
      1.33600000	     -2.03142355	    734.51294979	     -1.76768659	      0.14770405	      0.00000000	     -0.41297646	      0.00000000	      0.16909144	      0.00000000	      0.00000000	      0.00000000	      0.00000000	      0.00000000	      0.00000000	      0.00000000	      0.00000000	      0.00000000	      0.00000000
      1.33700000	     -2.03916646	    734.60078517	     -1.74710774	      0.14769454	      0.00000000	     -0.41298023	      0.00000000	      0.17488234	      0.00000000	      0.00000000	      0.00000000	      0.00000000	      0.00000000	      0.00000000	      0.00000000	      0.00000000	      0.00000000	      0.00000000
      1.33800000	     -2.03444870	    734.69089110	     -1.73885335	      0.14768554	      0.00000000	     -0.41298176	      0.00000000	      0.18099424	      0.00000000	      0.00000000	      0.00000000	      0.00000000	      0.00000000	      0.00000000	      0.00000000	      0.00000000	      0.00000000	      0.00000000
      1.33900000	     -2.00877705	    734.73040546	     -1.75678627	      0.14767244	      0.00000000	     -0.41299353	      0.00000000	      0.18818407	      0.00000000	      0.00000000	      0.00000000	      0.00000000	      0.00000000	      0.00000000	      0.00000000	      0.00000000	      0.00000000	      0.00000000
      1.34000000	     -1.96938281	    734.73879456	     -1.78882697	      0.14766500	      0.00000000	     -0.41302056	      0.00000000	      0.19372626	      0.00000000	      0.00000000	      0.00000000	      0.00000000	      0.00000000	      0.00000000	      0.00000000	      0.00000000	      0.00000000	      0.00000000
      1.34100000	     -1.92382949	    734.71832197	     -1.82127111	      0.14766305	      0.00000000	     -0.41306529	      0.00000000	      0.19868552	      0.00000000	      0.00000000	      0.00000000	      0.00000000	      0.00000000	      0.00000000	      0.00000000	      0.00000000	      0.00000000	      0.00000000
      1.34200000	     -1.87810642	    734.70932056	     -1.82069936	      0.14767294	      0.00000000	     -0.41310621	     -0.00000000	      0.20415290	     -0.00000000	      0.00000000	      0.00000000	      0.00000000	      0.00000000	      0.00000000	      0.00000000	      0.00000000	      0.00000000	      0.00000000
      1.34300000	     -1.84639293	    734.66830424	     -1.79202510	      0.14768230	      0.00000000	     -0.41313759	     -0.00000000	      0.20696372	     -0.00000000	      0.00000000	      0.00000000	      0.00000000	      0.00000000	      0.00000000	      0.00000000	      0.00000000	      0.00000000	      0.00000000
      1.34400000	     -1.83281194	    734.61530124	     -1.75589530	      0.14768491	      0.00000000	     -0.41315203	     -0.00000000	      0.21202989	     -0.00000000	      0.00000000	      0.00000000	      0.00000000	      0.00000000	      0.00000000	      0.00000000	      0.00000000	      0.00000000	      0.00000000
      1.34500000	     -1.81928167	    734.55782705	     -1.72832256	      0.14767048	      0.00000000	     -0.41316345	     -0.00000000	      0.22070097	     -0.00000000	      0.00000000	      0.00000000	      0.00000000	      0.00000000	      0.00000000	      0.00000000	      0.00000000	      0.00000000	      0.00000000
      1.34600000	     -1.80477033	    734.50251346	     -1.70934216	      0.14764495	      0.00000000	     -0.41317491	     -0.00000000	      0.23112492	     -0.00000000	      0.00000000	      0.00000000	      0.00000000	      0.00000000	      0.00000000	      0.00000000	      0.00000000	      0.00000000	      0.00000000
      1.34700000	     -1.76310059	    734.45198149	     -1.70297783	      0.14762396	      0.00000000	     -0.41319217	     -0.00000000	      0.24348948	     -0.00000000	      0.00000000	      0.00000000	      0.00000000	      0.00000000	      0.00000000	      0.00000000	      0.00000000	      0.00000000	      0.00000000
      1.34800000	     -1.69757501	    734.41138280	     -1.71773954	      0.14761460	      0.00000000	     -0.41320895	     -0.00000000	      0.24898470	     -0.00000000	      0.00000000	      0.00000000	      0.00000000	      0.00000000	      0.00000000	      0.00000000	      0.00000000	      0.00000000	      0.00000000
      1.34900000	     -1.63213533	    734.41195337	     -1.75839508	      0.14761246	      0.00000000	     -0.41322726	     -0.00000000	      0.24673527	     -0.00000000	      0.00000000	      0.00000000	      0.00000000	      0.00000000	      0.00000000	      0.00000000	      0.00000000	      0.00000000	      0.00000000
      1.35000000	     -1.56608910	    734.43940170	     -1.81031358	      0.14761227	      0.00000000	     -0.41323044	     -0.00000000	      0.23926974	     -0.00000000	      0.00000000	      0.00000000	      0.00000000	      0.00000000	      0.00000000	      0.00000000	      0.00000000	      0.00000000	      0.00000000
      1.35100000	     -1.53253776	    734.44640232	     -1.83660690	      0.14760133	      0.00000000	     -0.41323305	      0.00000000	      0.22962584	      0.00000000	      0.00000000	      0.00000000	      0.00000000	      0.00000000	      0.00000000	      0.00000000	      0.00000000	      0.00000000	      0.00000000
      1.35200000	     -1.52349009	    734.40508578	     -1.83491745	      0.14757765	      0.00000000	     -0.41323710	      0.00000000	      0.22556253	      0.00000000	      0.00000000	      0.00000000	      0.00000000	      0.00000000	      0.00000000	      0.00000000	      0.00000000	      0.00000000	      0.00000000
      1.35300000	     -1.51765120	    734.31465051	     -1.81287876	      0.14754453	      0.00000000	     -0.41325240	      0.00000000	      0.22538944	      0.00000000	      0.00000000	      0.00000000	      0.00000000	      0.00000000	      0.00000000	      0.00000000	      0.00000000	      0.00000000	      0.00000000
      1.35400000	     -1.49583121	    734.22310546	     -1.80076516	      0.14750778	      0.00000000	     -0.41328178	      0.00000000	      0.22593413	      0.00000000	      0.00000000	      0.00000000	      0.00000000	      0.00000000	      0.00000000	      0.00000000	      0.00000000	      0.00000000	      0.00000000
      1.35500000	     -1.46183862	    734.17718512	     -1.80277069	      0.14747663	      0.00000000	     -0.41331110	      0.00000000	      0.22404439	      0.00000000	      0.00000000	      0.00000000	      0.00000000	      0.00000000	      0.00000000	      0.00000000	      0.00000000	      0.00000000	      0.00000000
      1.35600000	     -1.44527552	    734.16392733	     -1.80714979	      0.14744638	      0.00000000	     -0.41332743	      0.00000000	      0.22057181	      0.00000000	      0.00000000	      0.00000000	      0.00000000	      0.00000000	      0.00000000	      0.00000000	      0.00000000	      0.00000000	      0.00000000
      1.35700000	     -1.47070893	    734.16351833	     -1.80386532	      0.14742117	      0.00000000	     -0.41333929	      0.00000000	      0.22067141	      0.00000000	      0.00000000	      0.00000000	      0.00000000	      0.00000000	      0.00000000	      0.00000000	      0.00000000	      0.00000000	      0.00000000
      1.35800000	     -1.50573635	    734.13881309	     -1.80548453	      0.14740319	      0.00000000	     -0.41334457	      0.00000000	      0.22343747	      0.00000000	      0.00000000	      0.00000000	      0.00000000	      0.00000000	      0.00000000	      0.00000000	      0.00000000	      0.00000000	      0.00000000
